SplineFontDB: 3.0
FontName: Seven
FullName: Seven
FamilyName: Seven
Weight: 

Copyright: Copyright (c) 2013, Vernon Adams
Version: 001.000
ItalicAngle: 0
UnderlinePosition: -100
UnderlineWidth: 50
Ascent: 800
Descent: 200
sfntRevision: 0x00010000
LayerCount: 2
Layer: 0 0 "Back"  1
Layer: 1 0 "Fore"  0
XUID: [1021 154 -776058584 10027910]
FSType: 0
OS2Version: 3
OS2_WeightWidthSlopeOnly: 0
OS2_UseTypoMetrics: 1
CreationTime: 1360349783
ModificationTime: 1360456491
PfmFamily: 17
TTFWeight: 400
TTFWidth: 5
LineGap: 90
VLineGap: 0
Panose: 2 0 5 3 0 0 0 0 0 0
OS2TypoAscent: 800
OS2TypoAOffset: 0
OS2TypoDescent: -200
OS2TypoDOffset: 0
OS2TypoLinegap: 90
OS2WinAscent: 900
OS2WinAOffset: 0
OS2WinDescent: 280
OS2WinDOffset: 0
HheadAscent: 900
HheadAOffset: 0
HheadDescent: -280
HheadDOffset: 0
OS2SubXSize: 650
OS2SubYSize: 700
OS2SubXOff: 0
OS2SubYOff: 140
OS2SupXSize: 650
OS2SupYSize: 700
OS2SupXOff: 0
OS2SupYOff: 480
OS2StrikeYSize: 49
OS2StrikeYPos: 258
OS2Vendor: 'newt'
OS2CodePages: 00000001.00000000
OS2UnicodeRanges: 00000003.00000000.00000000.00000000
MarkAttachClasses: 1
DEI: 91125
LangName: 1033 
Encoding: UnicodeBmp
UnicodeInterp: none
NameList: AGL For New Fonts
DisplaySize: -48
AntiAlias: 1
FitToEm: 1
WinInfo: 50 25 13
BeginPrivate: 7
BlueValues 23 [-20 0 651 671 880 900]
OtherBlues 11 [-260 -260]
BlueShift 1 0
StdHW 4 [56]
StdVW 4 [62]
StemSnapH 17 [41 56 94 97 199]
StemSnapV 19 [56 58 61 62 94 97]
EndPrivate
TeXData: 1 0 0 881852 440926 293950 682623 1048576 293950 783286 444596 497025 792723 393216 433062 380633 303038 157286 324010 404750 52429 2506097 1059062 262144
BeginChars: 65537 74

StartChar: exclam
Encoding: 33 33 2
Width: 164
GlyphClass: 2
Flags: MW
HStem: 0 94<67.5 96.5> 860 20G<51 113 113 113>
VStem: 35 94<32.5 61.5> 51 62<270 880 270 880>
LayerCount: 2
Fore
SplineSet
35 47 m 0xe0
 35 76 53 94 82 94 c 0
 111 94 129 76 129 47 c 0
 129 18 111 0 82 0 c 0
 53 0 35 18 35 47 c 0xe0
51 270 m 1xd0
 51 880 l 1
 113 880 l 1
 113 270 l 1
 51 270 l 1xd0
EndSplineSet
EndChar

StartChar: ampersand
Encoding: 38 38 3
Width: 904
GlyphClass: 2
Flags: MW
HStem: -20 56<336 404 336 412> 412 56<336 822 370 627 688 822 688 688> 844 56<336 412 327.5 416.5>
VStem: 51 62<196.5 251.5 196.5 259 628.5 683.5> 627 61<224 412>
CounterMasks: 1 e0
LayerCount: 2
Fore
SplineSet
601 754 m 1
 558 823 463 844 370 844 c 0
 302 844 232 837 177 797 c 0
 133 765 113 711 113 656 c 0
 113 601 133 547 177 515 c 0
 232 475 302 468 370 468 c 2
 822 468 l 1
 822 412 l 1
 688 412 l 1
 688 224 l 2
 688 154 664 84 609 41 c 1
 541 -10 454 -20 370 -20 c 0
 285 -20 198 -10 131 41 c 0
 75 84 51 154 51 224 c 0
 51 294 75 364 131 407 c 0
 149 421 168 432 189 440 c 1
 168 448 149 459 131 473 c 0
 75 516 51 586 51 656 c 0
 51 726 75 796 131 839 c 0
 198 890 285 900 370 900 c 0
 454 900 541 890 609 839 c 0
 628 824 643 806 655 786 c 1
 601 754 l 1
627 224 m 2
 627 412 l 1
 370 412 l 2
 302 412 232 405 177 365 c 0
 133 333 113 279 113 224 c 0
 113 169 133 115 177 83 c 0
 232 43 302 36 370 36 c 0
 438 36 508 43 562 83 c 0
 606 115 627 169 627 224 c 2
EndSplineSet
EndChar

StartChar: plus
Encoding: 43 43 4
Width: 684
GlyphClass: 2
Flags: MW
HStem: 298 56<82 311 82 311 373 601>
VStem: 311 62<56 298 56 298 354 595>
LayerCount: 2
Fore
SplineSet
82 298 m 1
 82 354 l 1
 311 354 l 1
 311 595 l 1
 373 595 l 1
 373 354 l 1
 601 354 l 1
 601 298 l 1
 373 298 l 1
 373 56 l 1
 311 56 l 1
 311 298 l 1
 82 298 l 1
EndSplineSet
EndChar

StartChar: comma
Encoding: 44 44 5
Width: 164
GlyphClass: 2
Flags: MW
HStem: -78 199<51 113 51 113>
VStem: 51 62<-78 121 -78 121>
LayerCount: 2
Fore
SplineSet
51 121 m 1
 113 121 l 1
 113 -78 l 1
 51 -78 l 1
 51 121 l 1
EndSplineSet
EndChar

StartChar: hyphen
Encoding: 45 45 6
Width: 500
GlyphClass: 2
Flags: MW
HStem: 493 56<82 418 82 418>
LayerCount: 2
Fore
SplineSet
82 493 m 1
 82 549 l 1
 418 549 l 1
 418 493 l 1
 82 493 l 1
EndSplineSet
EndChar

StartChar: period
Encoding: 46 46 7
Width: 164
GlyphClass: 2
Flags: MW
HStem: 0 94<67.5 96.5>
VStem: 35 94<32.5 61.5>
LayerCount: 2
Fore
SplineSet
35 47 m 0
 35 76 53 94 82 94 c 0
 111 94 129 76 129 47 c 0
 129 18 111 0 82 0 c 0
 53 0 35 18 35 47 c 0
EndSplineSet
EndChar

StartChar: zero
Encoding: 48 48 8
Width: 757
GlyphClass: 2
Flags: MW
HStem: -20 56<339 418.5 339 426.5> 844 56<339 418.5>
VStem: 51 62<387 493 387 500.5> 644 62<387 493>
LayerCount: 2
Fore
SplineSet
379 844 m 0
 299 844 223 809 179 743 c 0
 121 655 113 546 113 440 c 0
 113 334 121 225 179 137 c 0
 223 71 299 36 379 36 c 0
 458 36 534 71 578 137 c 0
 636 225 644 334 644 440 c 0
 644 546 636 655 578 743 c 0
 534 809 458 844 379 844 c 0
379 900 m 0
 474 900 569 863 624 785 c 0
 694 686 706 561 706 440 c 0
 706 319 694 194 624 95 c 0
 569 17 474 -20 379 -20 c 0
 283 -20 189 17 133 95 c 0
 63 194 51 319 51 440 c 0
 51 561 63 686 133 785 c 0
 189 863 283 900 379 900 c 0
EndSplineSet
EndChar

StartChar: one
Encoding: 49 49 9
Width: 610
GlyphClass: 2
Flags: MW
HStem: 0 21G<274 274 274 336> 860 20G<236 336 336 336>
VStem: 274 62<0 834 834 834>
LayerCount: 2
Fore
SplineSet
274 0 m 1
 274 834 l 1
 117 572 l 1
 51 572 l 1
 236 880 l 1
 336 880 l 1
 336 0 l 1
 274 0 l 1
EndSplineSet
EndChar

StartChar: two
Encoding: 50 50 10
Width: 684
GlyphClass: 2
Flags: MW
HStem: 0 56<113 629 113 629> 412 56<310 372.5 301.5 381> 844 56<311.5 372.5>
VStem: 51 62<56 163 56 163 56 204.5> 571 61<629.5 682.5>
LayerCount: 2
Fore
SplineSet
81 786 m 1
 92 806 106 824 124 839 c 0
 184 889 264 900 342 900 c 0
 420 900 500 889 560 839 c 0
 612 795 632 725 632 656 c 0
 632 587 612 517 560 473 c 0
 500 423 420 412 342 412 c 0
 278 412 213 396 170 350 c 1
 125 300 113 230 113 163 c 2
 113 56 l 1
 629 56 l 1
 629 0 l 1
 51 0 l 1
 51 163 l 2
 51 246 67 332 124 392 c 0
 179 450 261 468 342 468 c 0
 403 468 466 476 513 515 c 0
 554 549 571 603 571 656 c 0
 571 709 554 763 513 797 c 0
 466 836 403 844 342 844 c 0
 281 844 217 836 170 797 c 0
 157 786 147 774 138 760 c 1
 81 786 l 1
EndSplineSet
EndChar

StartChar: three
Encoding: 51 51 11
Width: 684
GlyphClass: 2
Flags: MW
HStem: -20 56<311.5 372.5 311.5 381> 412 56<342 372.5> 844 56<311.5 372.5>
VStem: 571 61<197.5 250.5 629.5 682.5>
CounterMasks: 1 e0
LayerCount: 2
Fore
SplineSet
81 786 m 1
 92 806 106 824 124 839 c 0
 184 889 264 900 342 900 c 0
 420 900 500 889 560 839 c 0
 612 795 632 725 632 656 c 0
 632 587 612 517 560 473 c 0
 543 459 525 448 506 440 c 1
 525 432 543 421 560 407 c 0
 612 363 632 293 632 224 c 0
 632 155 612 85 560 41 c 0
 500 -9 420 -20 342 -20 c 0
 264 -20 184 -9 124 41 c 0
 106 56 92 74 81 94 c 1
 136 124 l 1
 145 109 156 95 170 83 c 0
 217 44 281 36 342 36 c 0
 403 36 466 44 513 83 c 0
 554 117 571 171 571 224 c 0
 571 277 554 331 513 365 c 0
 466 404 403 412 342 412 c 1
 342 468 l 1
 403 468 466 476 513 515 c 0
 554 549 571 603 571 656 c 0
 571 709 554 763 513 797 c 0
 466 836 403 844 342 844 c 0
 281 844 217 836 170 797 c 0
 157 786 147 774 138 760 c 1
 81 786 l 1
EndSplineSet
EndChar

StartChar: four
Encoding: 52 52 12
Width: 684
GlyphClass: 2
Flags: MW
HStem: 0 21G<414 414 414 475> 324 56<90 414 90 414 54 414 475 629> 839 41<413.5 414>
VStem: 414 61<0 324 0 324 380 839 839 839>
LayerCount: 2
Fore
SplineSet
414 0 m 1
 414 324 l 1
 54 324 l 1
 54 424 l 1
 375 880 l 1
 475 880 l 1
 475 380 l 1
 629 380 l 1
 629 324 l 1
 475 324 l 1
 475 0 l 1
 414 0 l 1
414 380 m 1
 414 839 l 1
 413 839 90 380 90 380 c 1
 414 380 l 1
EndSplineSet
EndChar

StartChar: five
Encoding: 53 53 13
Width: 684
GlyphClass: 2
Flags: MW
HStem: -20 56<310.5 373.5 310.5 381.5> 500 56<323.5 373.5> 824 56<232 601 232 232>
VStem: 170 62<543 824 543 880 543 880> 571 61<236 300>
LayerCount: 2
Fore
SplineSet
170 519 m 1
 170 880 l 1
 601 880 l 1
 601 824 l 1
 232 824 l 1
 232 543 l 1
 267 552 305 556 342 556 c 0
 421 556 503 540 560 484 c 0
 616 428 632 347 632 268 c 0
 632 189 616 108 560 52 c 0
 503 -4 421 -20 342 -20 c 0
 262 -20 180 -4 124 52 c 0
 107 69 94 87 84 108 c 1
 140 136 l 1
 148 121 158 107 170 94 c 0
 214 49 279 36 342 36 c 0
 405 36 469 49 513 94 c 0
 558 139 571 204 571 268 c 0
 571 332 558 397 513 442 c 0
 469 487 405 500 342 500 c 0
 293 500 243 492 203 467 c 1
 153 508 l 1
 159 512 164 516 170 519 c 1
EndSplineSet
EndChar

StartChar: six
Encoding: 54 54 14
Width: 684
GlyphClass: 2
Flags: MW
HStem: -20 56<310.5 373.5 310.5 381.5> 500 56<310.5 373.5> 844 56<309 376.5>
VStem: 51 62<268 300 472 556> 571 61<236 300>
LayerCount: 2
Fore
SplineSet
113 472 m 1
 167 535 255 556 342 556 c 0
 421 556 503 540 560 484 c 0
 616 428 632 347 632 268 c 0
 632 189 616 108 560 52 c 0
 503 -4 421 -20 342 -20 c 0
 262 -20 180 -4 124 52 c 0
 68 108 51 189 51 268 c 2
 51 556 l 2
 51 648 65 744 124 814 c 0
 177 877 260 900 342 900 c 0
 424 900 507 877 560 814 c 0
 564 809 567 804 571 799 c 1
 520 763 l 1
 483 819 411 844 342 844 c 0
 276 844 211 823 170 772 c 0
 123 712 113 633 113 556 c 2
 113 472 l 1
113 268 m 0
 113 204 126 139 170 94 c 0
 214 49 279 36 342 36 c 0
 405 36 469 49 513 94 c 0
 558 139 571 204 571 268 c 0
 571 332 558 397 513 442 c 0
 469 487 405 500 342 500 c 0
 279 500 214 487 170 442 c 0
 126 397 113 332 113 268 c 0
EndSplineSet
EndChar

StartChar: seven
Encoding: 55 55 15
Width: 610
GlyphClass: 2
Flags: MW
HStem: 0 21G<51 120 51 51> 824 56<51 559 51 515>
LayerCount: 2
Fore
SplineSet
51 824 m 1
 51 880 l 1
 559 880 l 1
 559 780 l 1
 120 0 l 1
 51 0 l 1
 515 824 l 1
 51 824 l 1
EndSplineSet
EndChar

StartChar: eight
Encoding: 56 56 16
Width: 684
GlyphClass: 2
Flags: MW
HStem: -20 56<311 372.5 311 381> 434 56<311.5 372.5 311.5 372.5> 844 56<311.5 372.5>
VStem: 51 62<207 263 207 271 641.5 692.5> 571 61<207 263 641.5 692.5>
LayerCount: 2
Fore
SplineSet
342 844 m 0
 281 844 218 837 170 800 c 0
 130 769 113 718 113 667 c 0
 113 616 130 565 170 534 c 0
 218 497 281 490 342 490 c 0
 403 490 465 497 513 534 c 0
 553 565 571 616 571 667 c 0
 571 718 553 769 513 800 c 0
 465 837 403 844 342 844 c 0
342 900 m 0
 419 900 499 890 560 842 c 1
 611 800 632 734 632 667 c 0
 632 600 611 534 560 492 c 0
 543 479 525 469 506 461 c 1
 525 452 544 440 560 426 c 0
 613 379 632 307 632 235 c 0
 632 163 613 91 560 44 c 0
 501 -8 420 -20 342 -20 c 0
 263 -20 183 -8 124 44 c 0
 70 91 51 163 51 235 c 0
 51 307 70 379 124 426 c 0
 140 440 158 452 177 461 c 1
 158 469 140 479 124 492 c 0
 72 534 51 600 51 667 c 0
 51 734 72 800 124 842 c 0
 184 890 264 900 342 900 c 0
342 434 m 0
 280 434 217 425 170 384 c 0
 128 348 113 291 113 235 c 0
 113 179 128 122 170 86 c 0
 217 45 280 36 342 36 c 0
 403 36 467 45 513 86 c 1
 555 122 571 179 571 235 c 0
 571 291 555 348 513 384 c 1
 467 425 403 434 342 434 c 0
EndSplineSet
EndChar

StartChar: nine
Encoding: 57 57 17
Width: 684
GlyphClass: 2
Flags: MW
HStem: -20 56<307.5 374.5 307.5 383> 324 56<310.5 373.5 310.5 384.5> 844 56<310.5 373.5>
VStem: 51 62<580 644> 571 61<324 408 408 408 580 612>
LayerCount: 2
Fore
SplineSet
163 117 m 1
 201 61 273 36 342 36 c 0
 407 36 473 57 513 108 c 0
 561 168 571 247 571 324 c 2
 571 408 l 1
 517 345 427 324 342 324 c 0
 262 324 180 340 124 396 c 0
 68 452 51 533 51 612 c 0
 51 691 68 772 124 828 c 0
 180 884 262 900 342 900 c 0
 421 900 503 884 560 828 c 0
 616 772 632 691 632 612 c 2
 632 324 l 2
 632 232 619 136 560 66 c 0
 507 3 424 -20 342 -20 c 0
 257 -20 157 8 113 81 c 1
 163 117 l 1
571 612 m 0
 571 676 558 741 513 786 c 0
 469 831 405 844 342 844 c 0
 279 844 214 831 170 786 c 0
 126 741 113 676 113 612 c 0
 113 548 126 483 170 438 c 0
 214 393 279 380 342 380 c 0
 405 380 469 393 513 438 c 0
 558 483 571 548 571 612 c 0
EndSplineSet
EndChar

StartChar: colon
Encoding: 58 58 18
Width: 164
GlyphClass: 2
Flags: MW
HStem: 0 94<67.5 96.5> 557 94<67.5 96.5>
VStem: 35 94<32.5 61.5 589.5 618.5>
LayerCount: 2
Fore
SplineSet
35 604 m 0
 35 633 53 651 82 651 c 0
 111 651 129 633 129 604 c 0
 129 575 111 557 82 557 c 0
 53 557 35 575 35 604 c 0
35 47 m 0
 35 76 53 94 82 94 c 0
 111 94 129 76 129 47 c 0
 129 18 111 0 82 0 c 0
 53 0 35 18 35 47 c 0
EndSplineSet
EndChar

StartChar: semicolon
Encoding: 59 59 19
Width: 164
GlyphClass: 2
Flags: MW
HStem: 557 94<67.5 96.5>
VStem: 35 94<589.5 618.5> 51 62<-78 121 -78 121>
LayerCount: 2
Fore
SplineSet
35 604 m 0xc0
 35 633 53 651 82 651 c 0
 111 651 129 633 129 604 c 0
 129 575 111 557 82 557 c 0
 53 557 35 575 35 604 c 0xc0
51 121 m 1xa0
 113 121 l 1
 113 -78 l 1
 51 -78 l 1
 51 121 l 1xa0
EndSplineSet
EndChar

StartChar: A
Encoding: 65 65 20
Width: 820
GlyphClass: 2
Flags: HMW
HStem: 0 21G<46 46 46 105 710 710 710 774> 413 56<272 543 272 563 252 543> 860 20G<360 460 460 460>
LayerCount: 2
Back
SplineSet
51 0 m 5
 365 880 l 5
 465 880 l 5
 779 0 l 5
 715 0 l 5
 568 413 l 5
 257 413 l 5
 110 0 l 5
 51 0 l 5
277 469 m 5
 548 469 l 5
 412 849 l 5
 277 469 l 5
EndSplineSet
Fore
SplineSet
225 387 m 1
 591 387 l 1
 591 336 l 1
 225 336 l 1
 225 387 l 1
407 827 m 1
 105 0 l 1
 46 0 l 1
 366 880 l 1
 446 880 l 1
 774 0 l 1
 710 0 l 1
 407 827 l 1
EndSplineSet
EndChar

StartChar: B
Encoding: 66 66 21
Width: 717
GlyphClass: 2
Flags: HMW
HStem: 0 56<143.5 372.5 143.5 372.5> 452 56<143.5 372.5 143.5 372.5> 824 56<143.5 372.5 143.5 143.5>
VStem: 81.5 62<56 452 508 824> 601.5 61<226 282 643 689.5>
LayerCount: 2
Back
SplineSet
90 452 m 5
 342 452 l 6
 594.5 452 620 580 620 666 c 4
 620 824.967773438 494.728515625 880 342 880 c 6
 90 880 l 5
 90 824 l 5
 342 824 l 6
 457.575195312 824 559 786.091796875 559 666 c 4
 559 546.717773438 456.290039062 508 342 508 c 6
 90 508 l 5
 90 452 l 5
312 452 m 5
 392.5 452 l 6
 525.244140625 452 610.5 388.528320312 610.5 254 c 4
 610.5 119.93359375 523.950195312 56 392.5 56 c 6
 75 56 l 5
 75 0 l 5
 392.5 0 l 6
 561.294921875 0 671.5 81.9794921875 671.5 254 c 4
 671.5 478 482 508 392.5 508 c 6
 312 508 l 5
 312 452 l 5
EndSplineSet
Fore
SplineSet
120.5 454 m 5
 372.5 454 l 6
 625 454 650.5 580 650.5 666 c 4
 650.5 824.967773438 525.228515625 880 372.5 880 c 6
 120.5 880 l 5
 120.5 824 l 5
 372.5 824 l 6
 488.075195312 824 589.5 786.091796875 589.5 666 c 4
 589.5 546.717773438 486.790039062 505 372.5 505 c 6
 120.5 505 l 5
 120.5 454 l 5
328.5 454 m 5
 409 454 l 6
 541.744140625 454 627 388.528320312 627 254 c 4
 627 119.93359375 540.450195312 56 409 56 c 6
 91.5 56 l 5
 91.5 0 l 5
 409 0 l 6
 577.794921875 0 688 81.9794921875 688 254 c 4
 688 478 498.5 505 409 505 c 6
 328.5 505 l 5
 328.5 454 l 5
143.5 0 m 5
 143.5 880 l 5
 81.5 880 l 5
 81.5 0 l 5
 143.5 0 l 5
EndSplineSet
EndChar

StartChar: C
Encoding: 67 67 22
Width: 904
GlyphClass: 2
Flags: HMW
HStem: -20 56<404 500 404 508.5> 844 56<404 500>
VStem: 51 62<386 494 386 502>
LayerCount: 2
Fore
SplineSet
798 719 m 5
 742 690 l 5
 686.234481576 790.377933163 578.499875975 844 452 844 c 4
 217.847486677 844 113 669.470863827 113 440 c 4
 113 210.782812037 217.554967565 36 452 36 c 4
 578.473394641 36 686.17883747 89.5219074467 742 190 c 5
 798 161 l 5
 730.630465677 41.8077469675 604.033601113 -20 452 -20 c 4
 180.480834815 -20 51 172.65531987 51 440 c 4
 51 707.039591351 180.146812701 900 452 900 c 4
 603.998170864 900 730.561343621 838.314545901 798 719 c 5
EndSplineSet
EndChar

StartChar: D
Encoding: 68 68 23
Width: 825
GlyphClass: 2
Flags: HMW
HStem: 0 56<144 286 144 286> 824 56<144 144 144 286>
VStem: 82 62<56 824 56 880 56 880> 712 61<386.5 493.5>
LayerCount: 2
Fore
SplineSet
82 0 m 1
 82 880 l 1
 286 880 l 2
 418 880 554 858 652 770 c 0
 742 688 773 563 773 440 c 0
 773 317 742 192 652 110 c 0
 554 22 418 0 286 0 c 2
 82 0 l 1
144 824 m 1
 144 56 l 1
 286 56 l 2
 401 56 520 75 605 152 c 0
 685 224 712 333 712 440 c 0
 712 547 685 656 605 728 c 0
 520 805 401 824 286 824 c 2
 144 824 l 1
EndSplineSet
EndChar

StartChar: E
Encoding: 69 69 24
Width: 715
GlyphClass: 2
Flags: HMW
HStem: 0 56<144 663 144 663> 430 56<144 632 144 632> 824 56<144 663 144 144>
VStem: 82 62<56 430 486 824>
LayerCount: 2
Fore
SplineSet
82 0 m 1
 82 880 l 1
 663 880 l 1
 663 824 l 1
 144 824 l 1
 144 486 l 1
 632 486 l 1
 632 430 l 1
 144 430 l 1
 144 56 l 1
 663 56 l 1
 663 0 l 1
 82 0 l 1
EndSplineSet
EndChar

StartChar: F
Encoding: 70 70 25
Width: 715
GlyphClass: 2
Flags: HMW
HStem: 0 21G<82 82 82 144> 430 56<144 632 144 632> 824 56<144 663 144 144>
VStem: 82 62<0 430 486 824>
LayerCount: 2
Fore
SplineSet
82 0 m 1
 82 880 l 1
 663 880 l 1
 663 824 l 1
 144 824 l 1
 144 486 l 1
 632 486 l 1
 632 430 l 1
 144 430 l 1
 144 0 l 1
 82 0 l 1
EndSplineSet
EndChar

StartChar: G
Encoding: 71 71 26
Width: 904
GlyphClass: 2
Flags: HMW
HStem: -20 56<404 500 404 508.5> 0 21G<791 853 791 791> 402 56<542 790 542 853> 844 56<404 508>
VStem: 51 62<386 494 386 502> 791 62<0 149 149 149>
LayerCount: 2
Fore
SplineSet
758 710 m 1xbc
 705 801 588 844 476 844 c 0
 241.84765625 844 113 669.470863827 113 440 c 0
 113 210.782812037 217.554967565 36 452 36 c 0xbc
 548 36 645 64 706 137 c 0
 768 210 786 270 790 366 c 1
 542 366 l 1
 542 422 l 1
 853 422 l 1
 853 0 l 1
 791 0 l 1x7c
 791 149 l 1
 780 130 767 112 752 95 c 0
 679 10 565 -20 452 -20 c 0
 180.480834815 -20 51 172.65531987 51 440 c 0
 51 707.039591351 204.146484375 900 476 900 c 0
 612.630859375 900 742.552734375 850.473632812 811 744 c 1
 758 710 l 1xbc
EndSplineSet
EndChar

StartChar: H
Encoding: 72 72 27
Width: 819
GlyphClass: 2
Flags: HMW
HStem: 0 21G<82 144 82 82 675 737 675 675> 430 56<144 675 144 675> 860 20G<82 144 144 144 675 737 737 737>
VStem: 82 62<0 430 0 486 486 880> 675 62<0 430 430 430 486 880>
LayerCount: 2
Fore
SplineSet
737 0 m 1
 675 0 l 1
 675 430 l 1
 144 430 l 1
 144 0 l 1
 82 0 l 1
 82 880 l 1
 144 880 l 1
 144 486 l 1
 675 486 l 1
 675 880 l 1
 737 880 l 1
 737 0 l 1
EndSplineSet
EndChar

StartChar: I
Encoding: 73 73 28
Width: 164
GlyphClass: 2
Flags: MW
HStem: 0 21G<51 51 51 113> 860 20G<51 113 113 113>
VStem: 51 62<0 880 0 880>
LayerCount: 2
Fore
SplineSet
51 0 m 1
 51 880 l 1
 113 880 l 1
 113 0 l 1
 51 0 l 1
EndSplineSet
EndChar

StartChar: J
Encoding: 74 74 29
Width: 714
GlyphClass: 2
Flags: MW
HStem: -20 56<310 374 310 382> 860 20G<571 632 632 632>
VStem: 571 61<289 880>
LayerCount: 2
Fore
SplineSet
632 880 m 1
 632 289 l 2
 632 205 617 118 560 57 c 0
 505 -1 422 -20 342 -20 c 0
 261 -20 179 -1 124 57 c 0
 102 80 87 107 75 136 c 1
 134 159 l 1
 142 137 154 117 170 99 c 0
 213 52 278 36 342 36 c 0
 406 36 471 52 513 99 c 0
 559 150 571 221 571 289 c 2
 571 880 l 1
 632 880 l 1
EndSplineSet
EndChar

StartChar: K
Encoding: 75 75 30
Width: 788
GlyphClass: 2
Flags: HMW
HStem: 0 21G<82 144 82 82 663 737 663 663> 860 20G<82 144 144 144 655 737 737 737>
VStem: 82 62<0 391 458 880>
LayerCount: 2
Back
SplineSet
356 566 m 5
 737 0 l 5
 663 0 l 5
 313 530 l 5
 356 566 l 5
655 880 m 5
 737 880 l 5
 144 391 l 5
 144 458 l 5
 655 880 l 5
EndSplineSet
Fore
SplineSet
356 566 m 1
 737 0 l 1
 663 0 l 1
 313 530 l 1
 356 566 l 1
655 880 m 1
 737 880 l 1
 144 322 l 1
 144 396 l 1
 655 880 l 1
144 0 m 1
 82 0 l 1
 82 880 l 1
 144 880 l 1
 144 0 l 1
EndSplineSet
EndChar

StartChar: L
Encoding: 76 76 31
Width: 678
GlyphClass: 2
Flags: HMW
HStem: 0 56<144 626 144 626> 860 20G<82 144 144 144>
VStem: 82 62<56 880 56 880 56 880>
LayerCount: 2
Fore
SplineSet
82 0 m 1
 82 880 l 1
 144 880 l 1
 144 56 l 1
 626 56 l 1
 626 0 l 1
 82 0 l 1
EndSplineSet
EndChar

StartChar: M
Encoding: 77 77 32
Width: 966
GlyphClass: 2
Flags: HMW
HStem: 0 21G<82 82 82 138 430 430 430 530 822 822 822 884> 860 20G<82 182 182 182.5 784 884 884 884>
VStem: 82 56<0 821 0 880> 822 62<0 822 822 822>
LayerCount: 2
Fore
SplineSet
82 0 m 1
 82 880 l 1
 182 880 l 2
 183 880 485 186 485 186 c 5
 784 880 l 1
 884 880 l 1
 884 0 l 1
 822 0 l 1
 822 822 l 1
 514 119 l 1
 453 119 l 1
 453 119 139 821 138 821 c 1
 138 821 139 0 138 0 c 2
 82 0 l 1
EndSplineSet
EndChar

StartChar: N
Encoding: 78 78 33
Width: 813
GlyphClass: 2
Flags: HMW
HStem: 0 21G<82 82 82 138 631 631 631 731> 860 20G<82 182 182 182 675 731 731 731>
VStem: 82 56<0 841 0 880 0 880> 675 56<39 880 0 880>
LayerCount: 2
Fore
SplineSet
82 0 m 1
 82 880 l 1
 182 880 l 1
 675 39 l 1
 675 880 l 1
 731 880 l 1
 731 0 l 1
 631 0 l 1
 138 841 l 1
 138 0 l 1
 82 0 l 1
EndSplineSet
EndChar

StartChar: O
Encoding: 79 79 34
Width: 904
GlyphClass: 2
Flags: MW
HStem: -20 56<404 500 404 508.5> 844 56<404 500>
VStem: 51 62<386 494 386 502> 791 62<386 494>
LayerCount: 2
Fore
SplineSet
452 844 m 4
 356 844 259 816 198 743 c 4
 128 660 113 548 113 440 c 4
 113 332 128 220 198 137 c 4
 259 64 356 36 452 36 c 4
 548 36 645 64 706 137 c 4
 776 220 791 332 791 440 c 4
 791 548 776 660 706 743 c 4
 645 816 548 844 452 844 c 4
452 900 m 4
 565 900 679 870 752 785 c 5
 834 692 853 564 853 440 c 4
 853 316 834 188 752 95 c 5
 679 10 565 -20 452 -20 c 4
 339 -20 225 10 152 95 c 5
 70 188 51 316 51 440 c 4
 51 564 70 692 152 785 c 5
 225 870 339 900 452 900 c 4
EndSplineSet
EndChar

StartChar: P
Encoding: 80 80 35
Width: 693
GlyphClass: 2
Flags: HMW
HStem: 0 21G<82 82 82 144> 430 56<144 373 144 373> 824 56<144 144 144 373>
VStem: 82 62<0 430 0 486 486 824> 602 61<630.5 679.5>
LayerCount: 2
Fore
SplineSet
121 431 m 1
 373 431 l 2
 625.5 431 651 576 651 662 c 0
 651 820.967773438 525.728515625 880 373 880 c 2
 121 880 l 1
 121 824 l 1
 373 824 l 2
 488.575195312 824 590 782.091796875 590 662 c 0
 590 542.717773438 527.290039062 484 373 484 c 6
 121 484 l 5
 121 431 l 1
144 0 m 1
 144 880 l 1
 82 880 l 1
 82 0 l 1
 144 0 l 1
EndSplineSet
EndChar

StartChar: Q
Encoding: 81 81 36
Width: 904
GlyphClass: 2
Flags: HMW
HStem: -20 56<404 492.5 404 499.5> 844 56<404 500>
VStem: 51 62<386 494 386 502> 791 62<387.5 494>
LayerCount: 2
Fore
SplineSet
839 -186 m 1
 771 -186 l 1
 402 246 l 1
 469 246 l 1
 839 -186 l 1
EndSplineSet
Refer: 34 79 N 1 0 0 1 0 0 2
EndChar

StartChar: R
Encoding: 82 82 37
Width: 715
GlyphClass: 2
Flags: HMW
HStem: 0 21G<82 144 82 82 589 663 589 589> 430 56<144 342 144 373 373 403 144 409 144 409> 824 56<144 144 144 373>
VStem: 82 62<0 430 0 486 486 824> 602 61<630.5 679.5>
LayerCount: 2
Back
SplineSet
350 430 m 5
 144 430 l 5
 144 0 l 5
 82 0 l 5
 82 880 l 5
 384 880 l 6
 541.014648438 880 663 818.072924617 663 655 c 4
 663 454 503.5 430 350 430 c 5
144 824 m 5
 144 486 l 5
 381 486 l 6
 501.161132812 486 602 530.372264174 602 655 c 4
 602 779.431835347 504.240234375 824 384 824 c 6
 144 824 l 5
EndSplineSet
Fore
SplineSet
350 430 m 1
 144 430 l 1
 144 0 l 1
 82 0 l 1
 82 880 l 1
 384 880 l 2
 541.014648438 880 663 818.072924617 663 655 c 0
 663 454 503.5 430 350 430 c 1
144 824 m 1
 144 486 l 1
 381 486 l 2
 501.161132812 486 602 530.372264174 602 655 c 0
 602 779.431835347 504.240234375 824 384 824 c 2
 144 824 l 1
676 0 m 1
 607 0 l 1
 430 470 l 1
 492 470 l 1
 676 0 l 1
EndSplineSet
EndChar

StartChar: S
Encoding: 83 83 38
Width: 720
GlyphClass: 2
Flags: MW
HStem: -20 56<319 393 316.5 401> 412 56<327.5 393> 844 56<327.5 405>
VStem: 51 62<629 683 629 691> 607 62<197 251>
CounterMasks: 1 e0
LayerCount: 2
Fore
SplineSet
138 126 m 1
 175 56 273 36 360 36 c 0
 426 36 493 43 545 83 c 0
 588 116 607 170 607 224 c 0
 607 278 588 332 545 365 c 0
 493 405 426 412 360 412 c 0
 278 412 193 422 129 473 c 0
 74 516 51 586 51 656 c 0
 51 726 74 796 129 839 c 0
 193 890 278 900 360 900 c 0
 469 900 589 873 637 786 c 1
 583 754 l 1
 543 823 450 844 360 844 c 0
 295 844 227 837 175 797 c 0
 132 764 113 710 113 656 c 0
 113 602 132 548 175 515 c 0
 227 475 295 468 360 468 c 0
 442 468 527 458 592 407 c 0
 646 364 669 294 669 224 c 0
 669 154 646 84 592 41 c 0
 527 -10 442 -20 360 -20 c 0
 278 -20 193 -10 129 41 c 0
 110 56 95 74 83 94 c 1
 138 126 l 1
EndSplineSet
EndChar

StartChar: T
Encoding: 84 84 39
Width: 720
GlyphClass: 2
Flags: MW
HStem: 0 21G<329 391 329 329> 824 56<54 666 54 329 391 391 391 666>
VStem: 329 62<0 824 0 824>
LayerCount: 2
Fore
SplineSet
54 824 m 1
 54 880 l 1
 666 880 l 1
 666 824 l 1
 391 824 l 1
 391 0 l 1
 329 0 l 1
 329 824 l 1
 54 824 l 1
EndSplineSet
EndChar

StartChar: U
Encoding: 85 85 40
Width: 757
GlyphClass: 2
Flags: MW
HStem: -20 56<342.5 415 342.5 423.5> 860 20G<51 113 113 113 644 706 706 706>
VStem: 51 62<289 880> 644 62<289 880>
LayerCount: 2
Fore
SplineSet
706 880 m 1
 706 289 l 2
 706 203 686 116 624 57 c 0
 559 -4 468 -20 379 -20 c 0
 289 -20 198 -4 133 57 c 0
 71 116 51 203 51 289 c 2
 51 880 l 1
 113 880 l 1
 113 289 l 2
 113 219 129 148 179 99 c 1
 232 49 306 36 379 36 c 0
 451 36 525 49 578 99 c 1
 628 148 644 219 644 289 c 2
 644 880 l 1
 706 880 l 1
EndSplineSet
EndChar

StartChar: V
Encoding: 86 86 41
Width: 757
GlyphClass: 2
Flags: MW
HStem: 0 21G<328.5 329 329 429> 860 20G<51 115 115 115 648 706 706 706>
VStem: 648 58<880 880>
LayerCount: 2
Fore
SplineSet
51 880 m 1
 115 880 l 1
 381 33 l 2
 382 33 648 880 648 880 c 1
 706 880 l 1
 429 0 l 1
 329 0 l 2
 328 0 51 880 51 880 c 1
EndSplineSet
EndChar

StartChar: W
Encoding: 87 87 42
Width: 1185
GlyphClass: 2
Flags: HMW
HStem: 0 21G<237 337 237 237 520 620 520 520> 860 20G<-46 18 18 18 237 301 301 301 562 620 620 620 845 903 903 903>
LayerCount: 2
Back
SplineSet
334 880 m 5
 398 880 l 5
 670 33 l 5
 942 880 l 5
 1000 880 l 5
 717 0 l 5
 617 0 l 5
 334 880 l 5
EndSplineSet
Fore
SplineSet
568 880 m 1
 629 880 l 1
 871 63 l 1
 1083 880 l 1
 1141 880 l 1
 912 0 l 1
 832 0 l 5
 568 880 l 1
565 880 m 1
 618 880 l 1
 360 0 l 1
 279 0 l 1
 44 880 l 1
 108 880 l 1
 320 63 l 1
 565 880 l 1
EndSplineSet
EndChar

StartChar: X
Encoding: 88 88 43
Width: 757
GlyphClass: 2
Flags: MW
HStem: 0 21G<51 119 51 51 632 706 632 632> 860 20G<51 125 125 125 620 687 687 687>
LayerCount: 2
Fore
SplineSet
51 880 m 1
 125 880 l 1
 375 501 l 1
 620 880 l 1
 687 880 l 1
 409 450 l 1
 706 0 l 1
 632 0 l 1
 373 393 l 1
 119 0 l 1
 51 0 l 1
 338 445 l 1
 51 880 l 1
EndSplineSet
EndChar

StartChar: Y
Encoding: 89 89 44
Width: 757
GlyphClass: 2
Flags: MW
HStem: 0 21G<348 409 348 348> 860 20G<51 122 122 122 642 706 706 706>
VStem: 348 61<0 458 0 458>
LayerCount: 2
Fore
SplineSet
51 880 m 1
 122 880 l 1
 382 509 l 1
 642 880 l 1
 706 880 l 1
 409 458 l 1
 409 0 l 1
 348 0 l 1
 348 458 l 1
 51 880 l 1
EndSplineSet
EndChar

StartChar: Z
Encoding: 90 90 45
Width: 757
GlyphClass: 2
Flags: MW
HStem: 0 56<88 706 88 706 51 706> 824 56<51 706 51 669>
LayerCount: 2
Fore
SplineSet
51 824 m 1
 51 880 l 1
 706 880 l 1
 706 780 l 1
 88 56 l 1
 706 56 l 1
 706 0 l 1
 51 0 l 1
 51 100 l 1
 669 824 l 1
 51 824 l 1
EndSplineSet
EndChar

StartChar: a
Encoding: 97 97 46
Width: 592
GlyphClass: 2
Flags: HMW
HStem: -19 53<263 310 263 318> 0 20G<460 522 460 460> 341 53<263 310> 578 53<256 318 244 329>
VStem: 51 62<166 209 166 216> 460 62<0 30 30 30 166 209 345 473 0 514>
LayerCount: 2
Back
SplineSet
527 503 m 6x7c
 527 0 l 5
 465 0 l 5
 465 54 l 5
 465 378 l 5
 465 503 l 6
 527 503 l 6x7c
487 74 m 5
 421.466796875 8.8896484375 321.109951889 -20.4121478889 254.811483493 -20.4121478889 c 4
 142.838133301 -20.4121478889 51 63.1719663789 51 199 c 4
 51 342.225288985 144.463867188 378 287 378 c 4
 465 378 l 5
 464 322 l 29
 287 322 l 4
 181.041992188 322 113 306.357118151 113 199 c 4
 113 80.6089507003 188.450468854 36.3036038448 269.850655651 36.3036038448 c 4
 348.722361412 36.3036038448 438.1796875 77.8994140625 465 134 c 13
 487 74 l 5
292 615 m 4
 230 615 152 604 126 555 c 5
 71 585 l 5
 110 651 205 671 292 671 c 4
 412.967773438 671 527 629.126953125 527 503 c 5
 465 503 l 5
 465 591 376 615 292 615 c 4
EndSplineSet
Fore
SplineSet
527 473 m 2x7c
 527 0 l 1
 465 0 l 1
 465 51 l 2
 465 473 l 1
 527 473 l 2x7c
491 70 m 1
 427 4 321 -20 255 -20 c 0
 143 -20 51 60 51 187 c 0
 51 321 144 356 287 356 c 0
 470 356 l 1
 469 303 l 25
 287 303 l 0
 181 303 113 288 113 187 c 0
 113 75 189 34 270 34 c 0
 349 34 416 64 474 113 c 9
 491 70 l 1
292 578 m 0
 230 578 152 568 126 522 c 1
 71 551 l 1
 110 613 205 631 292 631 c 0
 413 631 527 592 527 473 c 1
 465 473 l 1
 465 555 376 578 292 578 c 0
EndSplineSet
EndChar

StartChar: b
Encoding: 98 98 47
Width: 686
GlyphClass: 2
Flags: HMW
HStem: 1063 20G<68 130 68 68> 805 53<319 383 319 391> 207 53<319 383> 225 19G<68 130 130 130>
VStem: 68 62<764 1083 496 568 225 299> 573 61<496 568>
LayerCount: 2
Fore
SplineSet
114 74 m 1xec
 163 10 265 -19 351 -19 c 0
 550 -19 634 109 634 306 c 0
 634 505 550 631 351 631 c 0
 265 631 182 600 130 544 c 1
 130 481 l 1
 169 528 237 578 351 578 c 0
 513 578 573 459 573 306 c 0
 573 153 512 34 351 34 c 0
 235 34 153 82 114 129 c 1
 114 74 l 1xec
131 858 m 1xcc
 69 858 l 1
 69 0 l 1
 131 0 l 1
 131 858 l 1xcc
EndSplineSet
EndChar

StartChar: c
Encoding: 99 99 48
Width: 654
GlyphClass: 2
Flags: HMW
HStem: -19 53<304 335 304 335 335 367 304 376> 578 53<304 367>
VStem: 52 62<270 342 270 350>
LayerCount: 2
Fore
SplineSet
335 34 m 1
 335 -19 l 1
 255 -19 174 3 123 62 c 0
 65 130 52 220 52 307 c 0
 52 393 65 483 123 551 c 0
 174 610 255 631 335 631 c 0
 416 631 497 610 548 551 c 0
 563 533 575 515 584 494 c 1
 527 470 l 1
 520 484 512 498 501 511 c 0
 463 558 399 578 335 578 c 0
 272 578 208 558 169 511 c 1
 123 453 114 379 114 307 c 0
 114 234 123 160 169 102 c 1
 208 55 272 34 335 34 c 1
335 34 m 1
 335 -19 l 1
 416 -19 497 3 548 62 c 0
 563 80 575 99 584 119 c 1
 527 142 l 1
 520 128 512 115 501 102 c 0
 463 55 399 34 335 34 c 1
EndSplineSet
EndChar

StartChar: d
Encoding: 100 100 49
Width: 686
GlyphClass: 2
Flags: HMW
HStem: -245 20G<51 113 51 51> -19 53<302 366 302 374> 578 53<302 366> 594 19G<51 113 113 113>
VStem: 51 62<-245 74 270 342 539 612> 556 61<270 342>
LayerCount: 2
Fore
SplineSet
572 74 m 1xec
 523 10 421 -19 335 -19 c 0
 136 -19 52 109 52 306 c 0
 52 505 136 631 335 631 c 0
 421 631 504 600 556 544 c 1
 556 481 l 1
 517 528 449 578 335 578 c 0
 173 578 113 459 113 306 c 0
 113 153 174 34 335 34 c 0
 451 34 533 82 572 129 c 1
 572 74 l 1xec
555 858 m 1xcc
 617 858 l 1
 617 0 l 1
 555 0 l 1
 555 858 l 1xcc
EndSplineSet
EndChar

StartChar: e
Encoding: 101 101 50
Width: 669
GlyphClass: 2
Flags: HMW
HStem: -19 53<302 334 302 334 334 371 302 374> 280 53<113 556 113 617 113 556> 578 53<302 366>
VStem: 51 62<280 280 280 333 280 350> 556 61<280 333>
LayerCount: 2
Fore
SplineSet
543 123 m 1
 591 95 l 1
 544 20 451 -19 350 -19 c 1
 350 34 l 1
 424 34 502 61 543 123 c 1
551 288 m 5
 551 519 462 578 334 578 c 0
 175 578 113 457 113 307 c 0
 113 155 189 34 350 34 c 1
 350 -19 l 1
 151 -19 51 126 51 307 c 0
 51 487 136 631 334 631 c 0
 533 631 612 490 612 307 c 6
 612 288 l 5
 551 288 l 5
583 289 m 5
 93 289 l 1
 93 335 l 1
 583 335 l 5
 583 289 l 5
EndSplineSet
EndChar

StartChar: f
Encoding: 102 102 51
Width: 537
GlyphClass: 2
Flags: HMW
HStem: 0 20G<237 299 237 237> 560 53<82 237 82 237 299 454> 794 53<364 392>
VStem: 237 62<0 560 0 560 612 704>
LayerCount: 2
Fore
SplineSet
445 749 m 1
 435 777 410 794 375 794 c 0
 353 794 332 787 318 771 c 0
 302 752 299 728 299 704 c 2
 299 612 l 1
 454 612 l 1
 454 560 l 1
 299 560 l 1
 299 0 l 1
 237 0 l 1
 237 560 l 1
 82 560 l 1
 82 612 l 1
 237 612 l 1
 237 704 l 2
 237 742 244 782 272 811 c 0
 298 837 337 847 375 847 c 0
 414 847 453 837 479 811 c 0
 491 798 499 782 505 765 c 1
 445 749 l 1
EndSplineSet
EndChar

StartChar: g
Encoding: 103 103 52
Width: 669
GlyphClass: 2
Flags: HMW
HStem: -264 53<304 364 304 372> 0 53<302 366 302 377> 578 53<302 366> 594 19G<556 617 617 617>
VStem: 51 62<281 351 281 359> 556 61<-26 89 89 89 281 351 542 612>
LayerCount: 2
Fore
SplineSet
334 631 m 0xec
 420 631 506 605 556 542 c 1
 556 612 l 1
 617 612 l 1xdc
 617 -26 l 2
 617 -93 599 -160 547 -204 c 0
 490 -252 411 -264 334 -264 c 0
 258 -264 179 -252 122 -204 c 0
 102 -187 87 -167 76 -145 c 1
 133 -120 l 1
 142 -137 153 -152 168 -165 c 0
 213 -202 275 -211 334 -211 c 0
 394 -211 456 -202 500 -165 c 0
 541 -131 556 -78 556 -26 c 2
 556 89 l 1
 506 26 420 0 334 0 c 0
 254 0 174 21 122 79 c 0
 64 144 51 233 51 317 c 0
 51 401 64 489 122 553 c 0
 174 611 254 631 334 631 c 0xec
556 317 m 0
 556 387 547 458 500 513 c 1
 461 560 398 578 334 578 c 0xec
 271 578 208 560 168 513 c 0
 122 458 113 387 113 317 c 0
 113 246 122 174 168 119 c 0
 208 72 271 53 334 53 c 0
 398 53 461 72 500 119 c 1
 547 174 556 246 556 317 c 0
EndSplineSet
EndChar

StartChar: h
Encoding: 104 104 53
Width: 632
GlyphClass: 2
Flags: HMW
HStem: 0 20G<69 131 69 69 515 577 515 515> 578 53<297 349> 809 19G<69 131 131 131>
VStem: 69 62<0 406 573 828> 515 62<0 406 0 429>
LayerCount: 2
Fore
SplineSet
131 0 m 1
 69 0 l 1
 69 828 l 1
 131 828 l 1
 131 0 l 1
EndSplineSet
Refer: 59 110 S 1 0 0 1 0 0 2
EndChar

StartChar: i
Encoding: 105 105 54
Width: 260
GlyphClass: 2
Flags: HMW
HStem: 0 20G<98 98 98 160> 594 19G<98 160 160 160> 737 91<114 145>
VStem: 82 97<768 797> 98 62<0 612 0 612>
LayerCount: 2
Fore
SplineSet
82 783 m 0xf0
 82 811 99 828 130 828 c 0
 161 828 178 811 178 783 c 0
 178 754 161 737 130 737 c 0
 99 737 82 754 82 783 c 0xf0
98 0 m 1xe8
 98 612 l 1
 160 612 l 1
 160 0 l 1
 98 0 l 1xe8
EndSplineSet
EndChar

StartChar: j
Encoding: 106 106 55
Width: 369
GlyphClass: 2
Flags: HMW
HStem: -264 53<80 120 74 128> 594 19G<222 284 284 284> 740 88<238 268>
VStem: -73 61<-145 -134> 206 94<770 798> 222 62<-106 612>
LayerCount: 2
Fore
SplineSet
284 612 m 1xf4
 222 612 l 1
 222 -76 l 1
 284 -76 l 1
 284 612 l 1xf4
123 -223 m 0
 204 -223 284 -179 284 -76 c 1
 222 -76 l 1
 222 -150 178 -177 119 -177 c 0
 44 -177 l 1
 44 -222 l 1
 123 -223 l 0
206 784 m 0xf8
 206 811 224 828 253 828 c 0
 282 828 300 811 300 784 c 0
 300 757 282 740 253 740 c 0
 224 740 206 757 206 784 c 0xf8
EndSplineSet
EndChar

StartChar: k
Encoding: 107 107 56
Width: 665
GlyphClass: 2
Flags: HMW
HStem: 0 20G<69 131 69 69 546 613 546 546> 594 19G<529 613 613 613> 809 19G<69 131 131 131>
VStem: 69 62<0 257 318 828>
LayerCount: 2
Back
SplineSet
511 651 m 5
 595 651 l 5
 113 273 l 5
 113 339 l 5
 275 466 l 5
 511 651 l 5
EndSplineSet
Fore
SplineSet
529 612 m 1
 613 612 l 1
 131 234 l 1
 131 299 l 1
 529 612 l 1
131 0 m 1
 69 0 l 1
 69 828 l 1
 131 828 l 1
 131 0 l 1
332 421 m 1
 613 0 l 1
 546 0 l 5
 286 388 l 1
 332 421 l 1
EndSplineSet
EndChar

StartChar: l
Encoding: 108 108 57
Width: 200
GlyphClass: 2
Flags: HMW
HStem: 0 20G<69 69 69 131> 809 19G<69 131 131 131>
VStem: 69 62<0 828 0 828>
LayerCount: 2
Fore
SplineSet
69 0 m 1
 69 828 l 1
 131 828 l 1
 131 0 l 1
 69 0 l 1
EndSplineSet
EndChar

StartChar: m
Encoding: 109 109 58
Width: 1032
GlyphClass: 2
Flags: HMW
HStem: 0 20G<69 131 69 69 494 556 494 494 919 981 919 919> 578 53<288 338 713 763> 594 19G<69 131 131 131>
VStem: 69 62<0 406 576 612> 494 62<0 406 0 429> 919 62<0 406 0 429>
CounterMasks: 1 1c
LayerCount: 2
Back
SplineSet
553 575 m 1xb8
 617.802734375 638.212890625 691.177734375 671.18359375 768.272460938 671.18359375 c 0
 885.955078125 671.18359375 981 594.356445312 981 431 c 2
 981 0 l 1
 919 0 l 1
 919 431 l 2
 919 564.185546875 850.922851562 615.001953125 764.8203125 615.001953125 c 0
 679.083007812 615.001953125 593.40625 564.6171875 553 495 c 9
 553 575 l 1xb8
EndSplineSet
Fore
SplineSet
510 502 m 5xb8
 594 599 691 631 768 631 c 0
 886 631 981 560 981 406 c 2
 981 0 l 1
 919 0 l 1
 919 406 l 2
 919 531 851 578 765 578 c 0
 679 578 587 529 543 455 c 13
 510 502 l 5xb8
128 541 m 1xb8
 193 601 266 631 343 631 c 0
 461 631 556 560 556 406 c 2
 556 0 l 1
 494 0 l 1
 494 406 l 2
 494 531 426 578 340 578 c 0
 254 578 168 532 128 466 c 9
 128 541 l 1xb8
131 544 m 1xb8
 131 406 l 1
 131 0 l 1
 69 0 l 1
 69 612 l 1
 131 612 l 1
 131 544 l 1xb8
EndSplineSet
EndChar

StartChar: n
Encoding: 110 110 59
Width: 632
GlyphClass: 2
Flags: HMWO
HStem: 0 20G<69 131 69 69 515 577 515 515> 578 53<297 349> 594 19G<69 131 131 131>
VStem: 69 62<0 406 573 612> 515 62<0 406 0 429>
LayerCount: 2
Fore
SplineSet
104 508 m 1xb8
 167 589.900390625 317 631 394 631 c 0
 558 631 634 530 634 376 c 2
 634 0 l 1
 482 0 l 1
 482 355 l 2
 482 469 450 503 364 503 c 0
 253 503 152 431.900390625 116 405 c 1
 191 550.900390625 l 1
 191 0 l 1
 39 0 l 1
 39 613.900390625 l 1
 131 613.900390625 l 1
 183 543.900390625 l 1
 104 508 l 1xb8
EndSplineSet
EndChar

StartChar: o
Encoding: 111 111 60
Width: 670
GlyphClass: 2
Flags: HMW
HStem: -19 53<304 367 304 376> 578 53<304 367>
VStem: 52 62<270 342 270 350> 557 61<270 342>
LayerCount: 2
Fore
SplineSet
335 578 m 0
 175 578 114 453 114 307 c 0
 114 161 174 34 335 34 c 0
 497 34 557 161 557 307 c 4
 557 452 496 578 335 578 c 0
335 631 m 0
 534 631 618 490 618 307 c 0
 618 124 534 -19 335 -19 c 4
 136 -19 52 126 52 307 c 0
 52 487 137 631 335 631 c 0
EndSplineSet
EndChar

StartChar: p
Encoding: 112 112 61
Width: 687
GlyphClass: 2
Flags: HMW
HStem: -245 20G<69 131 69 69> -19 53<320 384 320 392> 578 53<320 384> 594 19G<69 131 131 131>
VStem: 69 62<-245 74 270 342 539 612> 574 61<270 342>
LayerCount: 2
Back
SplineSet
113 573 m 5
 162 641 248 671 334 671 c 4
 532.554202249 671 617 535.311251207 617 326 c 4
 617 114.960725051 533.262590048 -20 334 -20 c 4
 248 -20 162 10 113 78 c 5
 168 108 l 5
 207 58 271 36 334 36 c 4
 495.616439214 36 556 162.76606435 556 326 c 4
 556 489.180662489 495.427325853 615 334 615 c 4
 271 615 207 593 168 543 c 5
 113 573 l 5
EndSplineSet
Fore
SplineSet
131 530 m 1xec
 180 594 266 631 352 631 c 0
 551 631 635 504 635 307 c 0
 635 108 551 -19 352 -19 c 0
 266 -19 183 13 131 69 c 1
 131 131 l 1
 170 84 238 34 352 34 c 0
 514 34 574 153 574 307 c 0
 574 461 513 578 352 578 c 0
 236 578 170 511 131 464 c 1
 131 530 l 1xec
131 -245 m 1
 69 -245 l 1
 69 612 l 1
 131 612 l 1xdc
 131 -245 l 1
EndSplineSet
EndChar

StartChar: q
Encoding: 113 113 62
Width: 669
GlyphClass: 2
Flags: HMW
HStem: -245 20G<51 113 51 51> -19 53<302 366 302 374> 578 53<302 366> 594 19G<51 113 113 113>
VStem: 51 62<-245 74 270 342 539 612> 556 61<270 342>
LayerCount: 2
Fore
SplineSet
572 71 m 5xec
 572 129 l 5
 533 82 451 34 335 34 c 4
 174 34 113 153 113 306 c 4
 113 459 173 578 335 578 c 4
 449 578 517 528 556 481 c 5
 556 544 l 5
 504 600 421 631 335 631 c 4
 136 631 52 505 52 306 c 4
 52 109 136 -19 335 -19 c 4
 421 -19 523 7 572 71 c 5xec
555 -245 m 1
 617 -245 l 1
 617 612 l 1
 555 612 l 1xdc
 555 -245 l 1
EndSplineSet
EndChar

StartChar: r
Encoding: 114 114 63
Width: 537
GlyphClass: 2
Flags: HMW
HStem: 0 20G<51 113 51 51> 578 53<246 298 240 300> 594 19G<51 113 113 113>
VStem: 51 62<0 406 581 612>
LayerCount: 2
Fore
SplineSet
408 497 m 1xd0
 389 551 332 578 268 578 c 0xd0
 224 578 180 567 152 535 c 0
 120 500 113 452 113 406 c 2
 113 0 l 1
 51 0 l 1
 51 612 l 1
 113 612 l 1xb0
 113 581 l 1
 153 617 211 631 268 631 c 0
 329 631 390 617 431 575 c 0
 447 558 459 538 467 517 c 1
 408 497 l 1xd0
EndSplineSet
EndChar

StartChar: s
Encoding: 115 115 64
Width: 610
GlyphClass: 2
Flags: HMW
HStem: -19 53<270 330 270 338> 280 53<280 330> 578 53<280 338 272 340>
VStem: 51 62<437 473 437 481> 497 62<139 175>
LayerCount: 2
Fore
SplineSet
128 100 m 1
 158 48 235 34 305 34 c 0
 355 34 407 38 449 65 c 0
 481 85 497 121 497 157 c 0
 497 193 481 228 449 249 c 0
 407 275 355 280 305 280 c 0
 238 280 169 287 115 323 c 0
 71 353 51 405 51 456 c 0
 51 508 71 557 115 588 c 0
 169 624 238 631 305 631 c 0
 372 631 441 624 495 588 c 0
 513 575 527 559 538 541 c 1
 482 513 l 1
 452 566 376 578 305 578 c 0
 255 578 203 575 161 549 c 0
 129 528 113 492 113 456 c 0
 113 421 129 385 161 364 c 0
 203 338 255 333 305 333 c 0
 372 333 441 326 495 289 c 0
 539 259 559 208 559 157 c 0
 559 105 539 55 495 25 c 0
 441 -12 372 -19 305 -19 c 0
 210 -19 113 3 72 73 c 1
 128 100 l 1
EndSplineSet
EndChar

StartChar: t
Encoding: 116 116 65
Width: 500
GlyphClass: 2
Flags: HMW
HStem: 0 20G<219 281 219 219> 586 53<54 219 54 219 281 446> 809 19G<219 281 281 281>
VStem: 219 62<0 586 0 586 639 828>
LayerCount: 2
Fore
SplineSet
54 586 m 5
 54 639 l 5
 174 639 l 5
 174 828 l 5
 236 828 l 5
 236 639 l 5
 401 639 l 5
 401 586 l 5
 236 586 l 5
 236 139 l 5
 174 139 l 5
 174 586 l 5
 54 586 l 5
335 -9 m 4
 254 -9 174 37 174 139 c 5
 236 139 l 5
 236 65 280 38 339 38 c 4
 414 37 l 5
 414 -6 l 5
 335 -9 l 4
EndSplineSet
EndChar

StartChar: u
Encoding: 117 117 66
Width: 632
GlyphClass: 2
Flags: HMW
HStem: 0 20G<58 120 58 58 504 566 504 504> 578 53<286 338> 594 19G<58 120 120 120>
VStem: 58 62<0 406 573 612> 504 62<0 406 0 429>
LayerCount: 2
Fore
SplineSet
504 72 m 5xb8
 439 13 356 -19 279 -19 c 4
 161 -19 58 54 58 207 c 6
 58 612 l 5
 120 612 l 5
 120 207 l 6
 120 82 196 34 282 34 c 4
 368 34 464 81 504 147 c 13
 504 72 l 5xb8
501 69 m 5xb8
 501 207 l 5
 501 612 l 5
 563 612 l 5
 563 0 l 5
 501 0 l 5
 501 69 l 5xb8
EndSplineSet
EndChar

StartChar: v
Encoding: 118 118 67
Width: 632
GlyphClass: 2
Flags: HMW
HStem: 0 20G<266 366 266 266> 594 19G<51 115 115 115 523 581 581 581>
LayerCount: 2
Fore
SplineSet
51 612 m 1
 115 612 l 1
 319 29 l 1
 523 612 l 1
 581 612 l 1
 366 0 l 1
 266 0 l 1
 51 612 l 1
EndSplineSet
EndChar

StartChar: w
Encoding: 119 119 68
Width: 1078
GlyphClass: 2
Flags: HMW
HStem: 0 20G<262 362 262 262 520 620 520 520> 594 19G<51 115 115 115 309 372 372 372 516 573 573 573 773 831 831 831>
LayerCount: 2
Back
SplineSet
516 651 m 5
 573 651 l 5
 362 0 l 5
 262 0 l 5
 51 651 l 5
 115 651 l 5
 315 32 l 5
 516 651 l 5
EndSplineSet
Fore
SplineSet
512 612 m 1
 569 612 l 1
 353 0 l 5
 267 0 l 1
 77 612 l 1
 141 612 l 1
 311 35 l 1
 512 612 l 1
517 612 m 1
 572 612 l 1
 773 35 l 1
 943 612 l 1
 1001 612 l 1
 814 0 l 1
 730 0 l 1
 517 612 l 1
EndSplineSet
EndChar

StartChar: x
Encoding: 120 120 69
Width: 610
GlyphClass: 2
Flags: HMW
HStem: 0 20G<51 119 51 51 485 559 485 485> 594 19G<51 125 125 125 473 540 540 540>
LayerCount: 2
Fore
SplineSet
51 612 m 1
 125 612 l 1
 301 364 l 1
 473 612 l 1
 540 612 l 1
 336 316 l 1
 559 0 l 1
 485 0 l 1
 299 263 l 1
 119 0 l 1
 51 0 l 1
 265 311 l 1
 51 612 l 1
EndSplineSet
EndChar

StartChar: y
Encoding: 121 121 70
Width: 632
GlyphClass: 2
Flags: HMW
HStem: -245 20G<192 250 192 192> 594 19G<51 115 115 115 523 581 581 581>
LayerCount: 2
Fore
SplineSet
51 612 m 1
 111 612 l 1
 318 74 l 5
 523 612 l 1
 581 612 l 1
 250 -245 l 1
 192 -245 l 1
 286 0 l 1
 288 0 l 1
 51 612 l 1
EndSplineSet
EndChar

StartChar: z
Encoding: 122 122 71
Width: 610
GlyphClass: 2
Flags: HMW
HStem: 0 53<95 559 95 559 51 559> 560 53<51 559 51 515>
LayerCount: 2
Back
SplineSet
51 595 m 5
 51 651 l 5
 559 651 l 5
 559 551 l 5
 95 56 l 5
 559 56 l 5
 559 0 l 5
 51 0 l 5
 51 100 l 5
 51 100 516 595 515 595 c 6
 51 595 l 5
EndSplineSet
Fore
SplineSet
69 560 m 1
 69 612 l 1
 576 612 l 1
 585 563 l 1
 115 53 l 1
 559 53 l 1
 559 0 l 1
 51 0 l 1
 42 63 l 1
 42 63 508 560 507 560 c 2
 69 560 l 1
EndSplineSet
EndChar

StartChar: Eth
Encoding: 208 208 72
Width: 684
GlyphClass: 2
Flags: MW
HStem: 493 56<82 601 82 601>
LayerCount: 2
Fore
SplineSet
82 493 m 1
 82 549 l 1
 601 549 l 1
 601 493 l 1
 82 493 l 1
EndSplineSet
EndChar

StartChar: Ntilde
Encoding: 209 209 73
Width: 904
GlyphClass: 2
Flags: MW
HStem: 493 56<82 822 82 822>
LayerCount: 2
Fore
SplineSet
82 493 m 1
 82 549 l 1
 822 549 l 1
 822 493 l 1
 82 493 l 1
EndSplineSet
EndChar
